<svg width="11" height="11" viewBox="0 0 11 11" fill="none" xmlns="http://www.w3.org/2000/svg">
<path d="M10.2317 1.30083L9.42083 0.320833C9.26333 0.1225 9.02417 0 8.75 0H1.75C1.47583 0 1.23667 0.1225 1.07333 0.320833L0.268333 1.30083C0.0991667 1.49917 0 1.76167 0 2.04167V9.33333C0 9.975 0.525 10.5 1.16667 10.5H9.33333C9.975 10.5 10.5 9.975 10.5 9.33333V2.04167C10.5 1.76167 10.4008 1.49917 10.2317 1.30083ZM5.25 8.45833L2.04167 5.25H4.08333V4.08333H6.41667V5.25H8.45833L5.25 8.45833ZM1.23667 1.16667L1.70917 0.583333H8.70917L9.2575 1.16667H1.23667Z" fill="#003040"/>
</svg>
