<svg width="14" height="16" viewBox="0 0 14 16" fill="none" xmlns="http://www.w3.org/2000/svg">
<path d="M11.789 2.11119H8.77006C8.46673 1.27341 7.67229 0.666748 6.7334 0.666748C5.79451 0.666748 5.00007 1.27341 4.69673 2.11119H1.67784C0.883398 2.11119 0.233398 2.76119 0.233398 3.55564V13.6667C0.233398 14.4612 0.883398 15.1112 1.67784 15.1112H11.789C12.5834 15.1112 13.2334 14.4612 13.2334 13.6667V3.55564C13.2334 2.76119 12.5834 2.11119 11.789 2.11119ZM6.7334 2.11119C7.13062 2.11119 7.45562 2.43619 7.45562 2.83341C7.45562 3.23064 7.13062 3.55564 6.7334 3.55564C6.33618 3.55564 6.01118 3.23064 6.01118 2.83341C6.01118 2.43619 6.33618 2.11119 6.7334 2.11119ZM8.17784 12.2223H3.12229V10.7779H8.17784V12.2223ZM10.3445 9.33341H3.12229V7.88897H10.3445V9.33341ZM10.3445 6.44453H3.12229V5.00008H10.3445V6.44453Z" fill="#003040"/>
</svg>
