<svg width="54" height="42" viewBox="0 0 54 42" fill="none" xmlns="http://www.w3.org/2000/svg">
<path fill-rule="evenodd" clip-rule="evenodd" d="M43.875 32.7651H38.8125V31.0776H43.875V26.0151H45.5625V31.0776H50.625V32.7651H45.5625V37.8276H43.875V32.7651ZM35.4743 37.8276H3.36367C1.51827 37.8276 0 36.3233 0 34.4676V15.8901H48.9375V21.7933C47.6388 21.2517 46.2137 20.9526 44.7188 20.9526C38.6609 20.9526 33.75 25.8635 33.75 31.9214C33.75 34.096 34.3828 36.1228 35.4743 37.8276ZM0 14.2026V4.06271C0 2.20396 1.51312 0.702637 3.37966 0.702637H21.9375L25.3125 7.45264H45.5526C47.4237 7.45264 48.9375 8.95997 48.9375 10.8194V14.2026H0H0ZM44.7188 41.2026C49.8446 41.2026 54 37.0473 54 31.9214C54 26.7955 49.8446 22.6401 44.7188 22.6401C39.5929 22.6401 35.4375 26.7955 35.4375 31.9214C35.4375 37.0473 39.5929 41.2026 44.7188 41.2026Z" fill="#1A4B61"/>
</svg>
