<svg width="19" height="23" viewBox="0 0 19 23" fill="none" xmlns="http://www.w3.org/2000/svg">
<path fill-rule="evenodd" clip-rule="evenodd" d="M0.901569 1.87801C1.46375 1.31497 2.22657 0.998312 3.02222 0.997703L11.0222 0.991578C11.2874 0.991375 11.5419 1.09654 11.7295 1.28393L17.7341 7.27933C17.9218 7.46673 18.0274 7.721 18.0276 7.98622L18.0368 19.9862C18.0374 20.7819 17.7219 21.5452 17.1597 22.1082C16.5975 22.6712 15.8347 22.9879 15.0391 22.9885L3.03906 22.9977C2.24341 22.9983 1.48011 22.6828 0.917067 22.1206C0.354028 21.5585 0.0373731 20.7956 0.0367639 20L0.0245137 4C0.0239045 3.20435 0.339391 2.44105 0.901569 1.87801ZM3.02375 2.9977C2.75853 2.99791 2.50426 3.10346 2.31686 3.29114C2.12947 3.47882 2.02431 3.73325 2.02451 3.99847L2.03676 19.9985C2.03697 20.2637 2.14252 20.518 2.3302 20.7053C2.51788 20.8927 2.77231 20.9979 3.03753 20.9977L15.0375 20.9885C15.3027 20.9883 15.557 20.8828 15.7444 20.6951C15.9318 20.5074 16.037 20.253 16.0368 19.9877L16.0279 8.40196L10.6095 2.99189L3.02375 2.9977Z" fill="white"/>
<path fill-rule="evenodd" clip-rule="evenodd" d="M11.0222 0.991578C11.5745 0.991155 12.0226 1.43853 12.023 1.99081L12.0268 6.99081L17.0268 6.98698C17.5791 6.98656 18.0271 7.43393 18.0276 7.98622C18.028 8.5385 17.5806 8.98656 17.0283 8.98698L11.0283 8.99158C10.4761 8.992 10.028 8.54463 10.0276 7.99234L10.023 1.99234C10.0226 1.44006 10.4699 0.992001 11.0222 0.991578Z" fill="white"/>
<path fill-rule="evenodd" clip-rule="evenodd" d="M4.0314 12.9969C4.03098 12.4446 4.47835 11.9966 5.03064 11.9962L13.0306 11.99C13.5829 11.9896 14.031 12.437 14.0314 12.9893C14.0318 13.5416 13.5845 13.9896 13.0322 13.99L5.03217 13.9962C4.47988 13.9966 4.03183 13.5492 4.0314 12.9969Z" fill="white"/>
<path fill-rule="evenodd" clip-rule="evenodd" d="M4.03447 16.9969C4.03404 16.4446 4.48142 15.9966 5.0337 15.9962L13.0337 15.99C13.586 15.9896 14.034 16.437 14.0345 16.9893C14.0349 17.5416 13.5875 17.9896 13.0352 17.99L5.03523 17.9962C4.48295 17.9966 4.03489 17.5492 4.03447 16.9969Z" fill="white"/>
<path fill-rule="evenodd" clip-rule="evenodd" d="M4.02834 8.99694C4.02792 8.44465 4.47529 7.99659 5.02757 7.99617L7.02757 7.99464C7.57986 7.99422 8.02792 8.44159 8.02834 8.99387C8.02876 9.54616 7.58139 9.99422 7.02911 9.99464L5.02911 9.99617C4.47682 9.99659 4.02876 9.54922 4.02834 8.99694Z" fill="white"/>
</svg>
