<svg width="14" height="14" viewBox="0 0 14 14" fill="none" xmlns="http://www.w3.org/2000/svg">
<g clip-path="url(#clip0)">
<path fill-rule="evenodd" clip-rule="evenodd" d="M0.583333 1.75C0.9055 1.75 1.16667 2.01117 1.16667 2.33333V5.25H4.08333C4.4055 5.25 4.66667 5.51117 4.66667 5.83333C4.66667 6.1555 4.4055 6.41667 4.08333 6.41667H0.583333C0.261167 6.41667 0 6.1555 0 5.83333V2.33333C0 2.01117 0.261167 1.75 0.583333 1.75Z" fill="#003040"/>
<path fill-rule="evenodd" clip-rule="evenodd" d="M9.33325 8.16659C9.33325 7.84442 9.59442 7.58325 9.91659 7.58325H13.4166C13.7388 7.58325 13.9999 7.84442 13.9999 8.16659V11.6666C13.9999 11.9888 13.7388 12.2499 13.4166 12.2499C13.0944 12.2499 12.8333 11.9888 12.8333 11.6666V8.74992H9.91659C9.59442 8.74992 9.33325 8.48875 9.33325 8.16659Z" fill="#003040"/>
<path fill-rule="evenodd" clip-rule="evenodd" d="M5.38239 1.39768C6.32897 1.12388 7.32948 1.09433 8.29057 1.31179C9.25165 1.52925 10.142 1.98662 10.8785 2.64124C11.615 3.29586 12.1737 4.12639 12.5024 5.05532C12.6099 5.35904 12.4508 5.69237 12.1471 5.79984C11.8434 5.90731 11.5101 5.74823 11.4026 5.44452C11.1396 4.70137 10.6927 4.03695 10.1035 3.51326C9.51424 2.98956 8.80197 2.62366 8.0331 2.44969C7.26423 2.27572 6.46382 2.29936 5.70656 2.5184C4.9493 2.73744 4.25986 3.14474 3.70258 3.7023C3.69827 3.70661 3.6939 3.71085 3.68945 3.71503L0.982788 6.25836C0.748009 6.47897 0.378841 6.46749 0.158229 6.23271C-0.0623826 5.99793 -0.0508975 5.62876 0.183882 5.40815L2.88406 2.87091C3.57949 2.17737 4.43881 1.67061 5.38239 1.39768ZM13.8418 7.76714C14.0624 8.00192 14.0509 8.37108 13.8161 8.5917L11.1159 11.1289C10.4205 11.8225 9.56118 12.3292 8.61761 12.6022C7.67104 12.876 6.67052 12.9055 5.70944 12.6881C4.74835 12.4706 3.85801 12.0132 3.1215 11.3586C2.38499 10.704 1.8263 9.87346 1.49758 8.94452C1.39011 8.64081 1.54919 8.30748 1.8529 8.2C2.15662 8.09253 2.48995 8.25161 2.59742 8.55532C2.8604 9.29847 3.30734 9.96289 3.89655 10.4866C4.48576 11.0103 5.19803 11.3762 5.9669 11.5502C6.73577 11.7241 7.53618 11.7005 8.29344 11.4814C9.05071 11.2624 9.74014 10.8551 10.2974 10.2975C10.3 10.295 10.3026 10.2924 10.3053 10.2898C10.307 10.2882 10.3088 10.2865 10.3105 10.2848L13.0172 7.74148C13.252 7.52087 13.6212 7.53236 13.8418 7.76714Z" fill="#003040"/>
</g>
<defs>
<clipPath id="clip0">
<rect width="14" height="14" fill="white"/>
</clipPath>
</defs>
</svg>
