<svg width="19" height="19" viewBox="0 0 19 19" fill="none" xmlns="http://www.w3.org/2000/svg">
<path d="M14.0303 0.0473633H2.03027C0.920273 0.0473633 0.0302734 0.947363 0.0302734 2.04736V16.0474C0.0302734 17.1474 0.920273 18.0474 2.03027 18.0474H16.0303C17.1303 18.0474 18.0303 17.1474 18.0303 16.0474V4.04736L14.0303 0.0473633ZM9.03027 16.0474C7.37027 16.0474 6.03027 14.7074 6.03027 13.0474C6.03027 11.3874 7.37027 10.0474 9.03027 10.0474C10.6903 10.0474 12.0303 11.3874 12.0303 13.0474C12.0303 14.7074 10.6903 16.0474 9.03027 16.0474ZM12.0303 6.04736H2.03027V2.04736H12.0303V6.04736Z" fill="#003040"/>
</svg>
