<svg width="24" height="23" viewBox="0 0 24 23" fill="none" xmlns="http://www.w3.org/2000/svg">
<path fill-rule="evenodd" clip-rule="evenodd" d="M11 4C7.13401 4 4 6.93813 4 10.5625C4 14.1869 7.13401 17.125 11 17.125C14.866 17.125 18 14.1869 18 10.5625C18 6.93813 14.866 4 11 4ZM2 10.5625C2 5.9026 6.02944 2.125 11 2.125C15.9706 2.125 20 5.9026 20 10.5625C20 15.2224 15.9706 19 11 19C6.02944 19 2 15.2224 2 10.5625Z" fill="#AFC6C9"/>
<path fill-rule="evenodd" clip-rule="evenodd" d="M15.9428 15.1965C16.3333 14.8303 16.9665 14.8303 17.357 15.1965L21.707 19.2746C22.0975 19.6407 22.0975 20.2343 21.707 20.6004C21.3165 20.9665 20.6833 20.9665 20.2928 20.6004L15.9428 16.5223C15.5523 16.1562 15.5523 15.5626 15.9428 15.1965Z" fill="#AFC6C9"/>
</svg>
