<svg width="19" height="19" viewBox="0 0 19 19" fill="none" xmlns="http://www.w3.org/2000/svg">
<path d="M18.7863 10.4973V9.15796C18.7863 8.56904 18.388 8.05462 17.8177 7.9073L16.7992 7.64373C16.6716 7.24184 16.5093 6.85185 16.314 6.47818L16.8565 5.55674C17.1553 5.04946 17.0732 4.40427 16.6568 3.98796L15.7093 3.04046C15.293 2.62414 14.6479 2.54202 14.1405 2.8408L13.2203 3.38172C12.8454 3.18559 12.4541 3.02266 12.0508 2.8948L11.7781 1.83845C11.6309 1.26804 11.1164 0.869577 10.5274 0.869629H9.18713C8.59808 0.869823 8.08391 1.26824 7.9367 1.83838L7.66506 2.88898C7.25782 3.01695 6.86267 3.18065 6.48424 3.37816L5.53619 2.81994C5.0289 2.52119 4.38372 2.6033 3.9674 3.01964L3.01963 3.96741C2.6033 4.38372 2.52119 5.0289 2.81997 5.53624L3.37821 6.48412C3.18608 6.85255 3.02597 7.23683 2.89967 7.6327L1.8381 7.90733C1.26804 8.05451 0.869577 8.56898 0.869629 9.15802V10.4982C0.869823 11.0873 1.26824 11.6015 1.83838 11.7487L2.88602 12.02C3.01548 12.4344 3.18191 12.8364 3.38331 13.221L2.84222 14.1415C2.54369 14.6484 2.6258 15.2936 3.04214 15.7099L3.98991 16.6577C4.40622 17.074 5.0514 17.1561 5.55874 16.8573L6.48011 16.3146C6.8636 16.5152 7.26427 16.681 7.67732 16.81L7.93659 17.8171C8.08391 18.3877 8.59808 18.7861 9.18692 18.7863H10.5274C11.1164 18.7863 11.6309 18.3879 11.7781 17.8175L12.0407 16.8019C12.4496 16.6728 12.8461 16.5077 13.2258 16.3085L14.1197 16.8349C14.627 17.1336 15.2722 17.0515 15.6885 16.6352L16.6363 15.6874C17.0526 15.2711 17.1347 14.6259 16.836 14.1186L16.3097 13.2247C16.5137 12.8359 16.6821 12.4293 16.8126 12.0099L17.8182 11.7497C18.3888 11.6021 18.7871 11.0868 18.7863 10.4973Z" fill="#7FA3A8"/>
<path d="M13.1213 9.83768C13.1213 11.6403 11.66 13.1016 9.8574 13.1016C8.0548 13.1016 6.59351 11.6403 6.59351 9.83768C6.59351 8.03508 8.0548 6.57379 9.8574 6.57379C11.66 6.57379 13.1213 8.03508 13.1213 9.83768Z" fill="white"/>
</svg>
